<svg width="60" height="60" viewBox="0 0 60 60" fill="none" xmlns="http://www.w3.org/2000/svg">
<circle cx="30" cy="30" r="30" fill="#FFBF05"/>
<path d="M29.5 48C29.5 48.8284 30.1716 49.5 31 49.5C31.8284 49.5 32.5 48.8284 32.5 48L29.5 48ZM32.0607 14.9393C31.4749 14.3536 30.5251 14.3536 29.9393 14.9393L20.3934 24.4853C19.8076 25.0711 19.8076 26.0208 20.3934 26.6066C20.9792 27.1924 21.9289 27.1924 22.5147 26.6066L31 18.1213L39.4853 26.6066C40.0711 27.1924 41.0208 27.1924 41.6066 26.6066C42.1924 26.0208 42.1924 25.0711 41.6066 24.4853L32.0607 14.9393ZM32.5 48L32.5 16L29.5 16L29.5 48L32.5 48Z" fill="black"/>
</svg>
