<svg width="33" height="33" viewBox="0 0 33 33" fill="none" xmlns="http://www.w3.org/2000/svg">
<path d="M32.7311 9.15238C32.6365 9.01803 32.5111 8.90839 32.3653 8.83266C32.2195 8.75694 32.0576 8.71736 31.8933 8.71725H10.0071L8.35039 3.00413C7.7007 0.754456 6.15689 0.511597 5.5237 0.511597H1.10634C0.54015 0.511597 0.0822754 0.969987 0.0822754 1.53563C0.0822754 2.10127 0.540666 2.55963 1.10631 2.55963H5.52315C5.66288 2.55963 6.08931 2.55963 6.38015 3.56458L12.0794 24.5098C12.2031 24.9517 12.6058 25.2569 13.0652 25.2569H26.986C27.4182 25.2569 27.8038 24.9862 27.9498 24.5794L32.8565 10.0877C32.9694 9.7737 32.9225 9.42411 32.7312 9.15238H32.7311ZM26.2654 23.2094H13.8425L10.5827 10.7658H30.4373L26.2654 23.2094ZM24.2344 27.3323C22.8102 27.3323 21.6562 28.4863 21.6562 29.9105C21.6562 31.3346 22.8102 32.4886 24.2344 32.4886C25.6585 32.4886 26.8125 31.3346 26.8125 29.9105C26.8125 28.4863 25.6585 27.3323 24.2344 27.3323ZM14.9531 27.3323C13.529 27.3323 12.375 28.4863 12.375 29.9105C12.375 31.3346 13.529 32.4886 14.9531 32.4886C16.3773 32.4886 17.5312 31.3346 17.5312 29.9105C17.5312 28.4863 16.3773 27.3323 14.9531 27.3323Z" fill="white" fill-opacity="0.8"/>
</svg>
