<svg width="33" height="33" viewBox="0 0 33 33" fill="none" xmlns="http://www.w3.org/2000/svg">
<path d="M32.7314 9.15225C32.6368 9.01791 32.5113 8.90826 32.3655 8.83254C32.2197 8.75682 32.0578 8.71724 31.8935 8.71713H10.0073L8.35063 3.00401C7.70094 0.754334 6.15713 0.511475 5.52394 0.511475H1.10658C0.540394 0.511475 0.0825195 0.969865 0.0825195 1.53551C0.0825195 2.10115 0.54091 2.5595 1.10655 2.5595H5.52339C5.66313 2.5595 6.08955 2.5595 6.38039 3.56446L12.0796 24.5097C12.2033 24.9516 12.6061 25.2568 13.0654 25.2568H26.9863C27.4184 25.2568 27.8041 24.9861 27.95 24.5792L32.8567 10.0876C32.9696 9.77358 32.9227 9.42399 32.7314 9.15225H32.7314ZM26.2656 23.2093H13.8427L10.5829 10.7657H30.4376L26.2656 23.2093ZM24.2346 27.3322C22.8105 27.3322 21.6565 28.4862 21.6565 29.9103C21.6565 31.3345 22.8105 32.4885 24.2346 32.4885C25.6588 32.4885 26.8127 31.3345 26.8127 29.9103C26.8127 28.4862 25.6588 27.3322 24.2346 27.3322ZM14.9534 27.3322C13.5292 27.3322 12.3752 28.4862 12.3752 29.9103C12.3752 31.3345 13.5292 32.4885 14.9534 32.4885C16.3775 32.4885 17.5315 31.3345 17.5315 29.9103C17.5315 28.4862 16.3775 27.3322 14.9534 27.3322Z" fill="white" fill-opacity="0.8"/>
<path d="M20.432 21.12C20 21.12 19.552 21.064 19.088 20.952C18.624 20.84 18.22 20.672 17.876 20.448C17.716 20.344 17.608 20.224 17.552 20.088C17.496 19.952 17.48 19.824 17.504 19.704C17.536 19.576 17.596 19.468 17.684 19.38C17.78 19.292 17.896 19.24 18.032 19.224C18.176 19.208 18.332 19.244 18.5 19.332C18.828 19.508 19.144 19.636 19.448 19.716C19.752 19.788 20.064 19.824 20.384 19.824C20.736 19.824 21.032 19.776 21.272 19.68C21.512 19.584 21.692 19.44 21.812 19.248C21.94 19.056 22.004 18.824 22.004 18.552C22.004 18.152 21.868 17.856 21.596 17.664C21.332 17.464 20.944 17.364 20.432 17.364H19.664C19.44 17.364 19.268 17.308 19.148 17.196C19.036 17.084 18.98 16.928 18.98 16.728C18.98 16.528 19.036 16.372 19.148 16.26C19.268 16.148 19.44 16.092 19.664 16.092H20.288C20.592 16.092 20.852 16.044 21.068 15.948C21.284 15.844 21.452 15.7 21.572 15.516C21.692 15.332 21.752 15.108 21.752 14.844C21.752 14.476 21.628 14.196 21.38 14.004C21.14 13.812 20.788 13.716 20.324 13.716C20.028 13.716 19.748 13.752 19.484 13.824C19.228 13.888 18.944 14.012 18.632 14.196C18.488 14.284 18.348 14.32 18.212 14.304C18.084 14.288 17.976 14.236 17.888 14.148C17.8 14.06 17.74 13.956 17.708 13.836C17.676 13.708 17.684 13.58 17.732 13.452C17.78 13.316 17.88 13.2 18.032 13.104C18.376 12.88 18.756 12.712 19.172 12.6C19.588 12.48 20.016 12.42 20.456 12.42C21.04 12.42 21.54 12.512 21.956 12.696C22.372 12.872 22.688 13.128 22.904 13.464C23.128 13.792 23.24 14.192 23.24 14.664C23.24 15 23.176 15.308 23.048 15.588C22.92 15.86 22.74 16.092 22.508 16.284C22.276 16.476 21.996 16.612 21.668 16.692V16.548C22.244 16.644 22.692 16.884 23.012 17.268C23.332 17.644 23.492 18.116 23.492 18.684C23.492 19.18 23.368 19.612 23.12 19.98C22.872 20.348 22.52 20.632 22.064 20.832C21.608 21.024 21.064 21.12 20.432 21.12Z" fill="white" fill-opacity="0.8"/>
</svg>
