<svg width="33" height="33" viewBox="0 0 33 33" fill="none" xmlns="http://www.w3.org/2000/svg">
<path d="M32.7314 9.15225C32.6368 9.01791 32.5113 8.90827 32.3655 8.83254C32.2197 8.75682 32.0578 8.71724 31.8935 8.71713H10.0073L8.35063 3.00401C7.70094 0.754334 6.15713 0.511475 5.52394 0.511475H1.10658C0.540394 0.511475 0.0825195 0.969865 0.0825195 1.53551C0.0825195 2.10115 0.54091 2.5595 1.10655 2.5595H5.52339C5.66313 2.5595 6.08955 2.5595 6.38039 3.56446L12.0796 24.5097C12.2033 24.9515 12.6061 25.2568 13.0654 25.2568H26.9863C27.4184 25.2568 27.8041 24.9861 27.95 24.5792L32.8567 10.0876C32.9696 9.77358 32.9227 9.42399 32.7314 9.15225H32.7314ZM26.2656 23.2093H13.8427L10.5829 10.7657H30.4376L26.2656 23.2093ZM24.2346 27.3322C22.8105 27.3322 21.6565 28.4862 21.6565 29.9103C21.6565 31.3345 22.8105 32.4885 24.2346 32.4885C25.6588 32.4885 26.8127 31.3345 26.8127 29.9103C26.8127 28.4862 25.6588 27.3322 24.2346 27.3322ZM14.9534 27.3322C13.5292 27.3322 12.3752 28.4862 12.3752 29.9103C12.3752 31.3345 13.5292 32.4885 14.9534 32.4885C16.3775 32.4885 17.5315 31.3345 17.5315 29.9103C17.5315 28.4862 16.3775 27.3322 14.9534 27.3322Z" fill="white" fill-opacity="0.8"/>
</svg>
