<svg width="33" height="33" viewBox="0 0 33 33" fill="none" xmlns="http://www.w3.org/2000/svg">
<path d="M9.70191 3.32479L11.3065 2.84217C12.1856 2.5771 13.131 2.64091 13.9664 3.02169C14.8019 3.40247 15.4702 4.0742 15.8468 4.91154L17.087 7.66979C17.4108 8.39002 17.501 9.19354 17.3449 9.96761C17.1888 10.7417 16.7943 11.4475 16.2167 11.9859L14.1624 13.9013C14.1024 13.9573 14.0643 14.0329 14.0552 14.1144C13.9947 14.6603 14.3645 15.7232 15.217 17.2013C15.8372 18.2752 16.3995 19.03 16.8767 19.4522C17.2094 19.7478 17.3923 19.811 17.4707 19.789L20.2344 18.9434C20.9892 18.7126 21.7972 18.7237 22.5454 18.9752C23.2935 19.2267 23.9442 19.706 24.4062 20.3459L26.1675 22.7879C26.7032 23.5305 26.9511 24.4423 26.8654 25.3539C26.7797 26.2655 26.3661 27.115 25.7014 27.7448L24.4832 28.8998C23.8366 29.5121 23.0425 29.9465 22.1781 30.1607C21.3138 30.3749 20.4087 30.3617 19.551 30.1222C15.7643 29.0648 12.3694 25.8693 9.32791 20.6017C6.28229 15.3272 5.21391 10.7842 6.19841 6.97129C6.42003 6.11375 6.85881 5.32776 7.47245 4.68907C8.0861 4.05037 8.85392 3.58052 9.70191 3.32479V3.32479ZM10.2973 5.30067C9.78864 5.45392 9.32802 5.73556 8.9598 6.11848C8.59158 6.50139 8.32816 6.97267 8.19491 7.48692C7.36716 10.6934 8.31454 14.7208 11.114 19.5704C13.9094 24.4132 16.9193 27.2457 20.1065 28.1367C20.621 28.2799 21.1637 28.2876 21.682 28.159C22.2003 28.0303 22.6765 27.7697 23.0642 27.4024L24.2838 26.2474C24.586 25.9611 24.7741 25.5749 24.813 25.1604C24.852 24.7459 24.7392 24.3314 24.4955 23.9938L22.7355 21.5532C22.5255 21.262 22.2296 21.0438 21.8893 20.9294C21.5489 20.815 21.1813 20.81 20.838 20.9152L18.0674 21.7635C16.4587 22.242 14.9984 20.9482 13.4309 18.2325C12.3749 16.4038 11.8827 14.9875 12.005 13.8862C12.0697 13.3142 12.335 12.7862 12.7558 12.3929L14.81 10.4775C15.0727 10.2328 15.2521 9.91198 15.3231 9.56008C15.3942 9.20817 15.3532 8.84286 15.206 8.51542L13.9658 5.75717C13.7946 5.37686 13.491 5.07175 13.1116 4.89871C12.7321 4.72568 12.3027 4.69652 11.9033 4.81667L10.2973 5.30067V5.30067Z" fill="white" fill-opacity="0.8"/>
</svg>
