<svg width="40" height="40" viewBox="0 0 40 40" fill="none" xmlns="http://www.w3.org/2000/svg">
<path d="M19.9982 12.295C17.9542 12.295 15.994 13.107 14.5487 14.5523C13.1035 15.9976 12.2915 17.9578 12.2915 20.0017C12.2915 22.0456 13.1035 24.0059 14.5487 25.4511C15.994 26.8964 17.9542 27.7084 19.9982 27.7084C22.0421 27.7084 24.0023 26.8964 25.4476 25.4511C26.8929 24.0059 27.7048 22.0456 27.7048 20.0017C27.7048 17.9578 26.8929 15.9976 25.4476 14.5523C24.0023 13.107 22.0421 12.295 19.9982 12.295ZM19.9982 25.0067C18.6703 25.0067 17.3969 24.4792 16.4579 23.5403C15.519 22.6014 14.9915 21.3279 14.9915 20C14.9915 18.6722 15.519 17.3987 16.4579 16.4598C17.3969 15.5209 18.6703 14.9934 19.9982 14.9934C21.326 14.9934 22.5995 15.5209 23.5384 16.4598C24.4774 17.3987 25.0048 18.6722 25.0048 20C25.0048 21.3279 24.4774 22.6014 23.5384 23.5403C22.5995 24.4792 21.326 25.0067 19.9982 25.0067Z" fill="white" fill-opacity="0.8"/>
<path d="M28.01 13.8083C29.0023 13.8083 29.8067 13.0039 29.8067 12.0116C29.8067 11.0194 29.0023 10.215 28.01 10.215C27.0178 10.215 26.2134 11.0194 26.2134 12.0116C26.2134 13.0039 27.0178 13.8083 28.01 13.8083Z" fill="white" fill-opacity="0.8"/>
<path d="M34.2218 10.185C33.8359 9.1886 33.2463 8.28377 32.4906 7.5284C31.735 6.77303 30.8299 6.18375 29.8334 5.7983C28.6673 5.36056 27.4354 5.12387 26.1901 5.0983C24.5851 5.0283 24.0767 5.0083 20.0068 5.0083C15.9368 5.0083 15.4151 5.0083 13.8234 5.0983C12.5791 5.12256 11.348 5.3593 10.1834 5.7983C9.18664 6.1833 8.28136 6.77242 7.52564 7.52785C6.76992 8.28328 6.18047 9.18834 5.79508 10.185C5.35726 11.351 5.12111 12.583 5.09675 13.8283C5.02508 15.4316 5.00342 15.94 5.00342 20.0116C5.00342 24.0816 5.00342 24.6 5.09675 26.195C5.12175 27.4416 5.35675 28.6716 5.79508 29.84C6.18155 30.8362 6.77158 31.7409 7.52748 32.4963C8.28338 33.2516 9.18852 33.8409 10.1851 34.2266C11.3475 34.682 12.579 34.9356 13.8268 34.9766C15.4318 35.0466 15.9401 35.0683 20.0101 35.0683C24.0801 35.0683 24.6018 35.0683 26.1934 34.9766C27.4386 34.9513 28.6705 34.7152 29.8368 34.2783C30.833 33.8919 31.7378 33.3022 32.4934 32.5466C33.2489 31.791 33.8387 30.8862 34.2251 29.89C34.6634 28.7233 34.8984 27.4933 34.9234 26.2466C34.9951 24.6433 35.0168 24.135 35.0168 20.0633C35.0168 15.9916 35.0168 15.475 34.9234 13.88C34.904 12.6171 34.6666 11.367 34.2218 10.185ZM32.1917 26.0716C32.181 27.0321 32.0057 27.9837 31.6734 28.885C31.4231 29.5331 31.04 30.1216 30.5485 30.6128C30.0571 31.1039 29.4683 31.4867 28.8201 31.7366C27.9288 32.0674 26.9874 32.2427 26.0368 32.255C24.4534 32.3283 24.0068 32.3466 19.9468 32.3466C15.8834 32.3466 15.4684 32.3466 13.8551 32.255C12.905 32.2433 11.964 32.068 11.0734 31.7366C10.4229 31.4883 9.83175 31.1061 9.33823 30.6149C8.84471 30.1237 8.45981 29.5343 8.20842 28.885C7.88083 27.9934 7.7056 27.053 7.69008 26.1033C7.61842 24.52 7.60175 24.0733 7.60175 20.0133C7.60175 15.9516 7.60175 15.5366 7.69008 13.9216C7.70086 12.9617 7.87618 12.0107 8.20842 11.11C8.71675 9.79497 9.75842 8.75997 11.0734 8.25663C11.9644 7.92687 12.9051 7.75157 13.8551 7.7383C15.4401 7.66663 15.8851 7.64663 19.9468 7.64663C24.0084 7.64663 24.4251 7.64663 26.0368 7.7383C26.9874 7.74974 27.929 7.92509 28.8201 8.25663C29.4683 8.50709 30.057 8.8903 30.5484 9.38168C31.0397 9.87306 31.423 10.4618 31.6734 11.11C32.001 12.0015 32.1762 12.9419 32.1917 13.8916C32.2634 15.4766 32.2817 15.9216 32.2817 19.9833C32.2817 24.0433 32.2817 24.48 32.2101 26.0733H32.1917V26.0716Z" fill="white" fill-opacity="0.8"/>
</svg>
