<svg width="42" height="42" viewBox="0 0 42 42" fill="none" xmlns="http://www.w3.org/2000/svg">
<path d="M32.8125 17.0625C32.8125 13.9296 31.568 10.9251 29.3527 8.7098C27.1374 6.49453 24.1329 5.25 21 5.25C17.8671 5.25 14.8626 6.49453 12.6473 8.7098C10.432 10.9251 9.1875 13.9296 9.1875 17.0625C9.1875 21.9083 13.0646 28.224 21 35.7892C28.9354 28.224 32.8125 21.9083 32.8125 17.0625ZM21 39.375C11.3741 30.6259 6.5625 23.1866 6.5625 17.0625C6.5625 13.2334 8.08359 9.5612 10.7911 6.85365C13.4987 4.14609 17.1709 2.625 21 2.625C24.8291 2.625 28.5013 4.14609 31.2089 6.85365C33.9164 9.5612 35.4375 13.2334 35.4375 17.0625C35.4375 23.1866 30.6259 30.6259 21 39.375Z" fill="white"/>
<path d="M21 21C22.0443 21 23.0458 20.5852 23.7842 19.8467C24.5227 19.1083 24.9375 18.1068 24.9375 17.0625C24.9375 16.0182 24.5227 15.0167 23.7842 14.2783C23.0458 13.5398 22.0443 13.125 21 13.125C19.9557 13.125 18.9542 13.5398 18.2158 14.2783C17.4773 15.0167 17.0625 16.0182 17.0625 17.0625C17.0625 18.1068 17.4773 19.1083 18.2158 19.8467C18.9542 20.5852 19.9557 21 21 21ZM21 23.625C19.2595 23.625 17.5903 22.9336 16.3596 21.7029C15.1289 20.4722 14.4375 18.803 14.4375 17.0625C14.4375 15.322 15.1289 13.6528 16.3596 12.4221C17.5903 11.1914 19.2595 10.5 21 10.5C22.7405 10.5 24.4097 11.1914 25.6404 12.4221C26.8711 13.6528 27.5625 15.322 27.5625 17.0625C27.5625 18.803 26.8711 20.4722 25.6404 21.7029C24.4097 22.9336 22.7405 23.625 21 23.625Z" fill="white"/>
</svg>
